<?xml version="1.0" encoding="utf-8"?>
<!-- Generator: Adobe Illustrator 20.0.0, SVG Export Plug-In . SVG Version: 6.00 Build 0)  -->
<svg version="1.1"
	 id="svg2" inkscape:export-filename="D:\Brontozaur\leszek - in progress\Mój Teatr\Logo\Mój Teatr.png" inkscape:export-xdpi="600.07501" inkscape:export-ydpi="600.07501" inkscape:version="0.48.1 " sodipodi:docname="Mój Teatr.svg" xmlns:cc="http://creativecommons.org/ns#" xmlns:dc="http://purl.org/dc/elements/1.1/" xmlns:inkscape="http://www.inkscape.org/namespaces/inkscape" xmlns:osb="http://www.openswatchbook.org/uri/2009/osb" xmlns:rdf="http://www.w3.org/1999/02/22-rdf-syntax-ns#" xmlns:sodipodi="http://sodipodi.sourceforge.net/DTD/sodipodi-0.dtd" xmlns:svg="http://www.w3.org/2000/svg"
	 xmlns="http://www.w3.org/2000/svg" xmlns:xlink="http://www.w3.org/1999/xlink" x="0px" y="0px" viewBox="0 0 300 200"
	 style="enable-background:new 0 0 300 200;" xml:space="preserve">
<path id="path9" d="M219.1,11.7l-17.4,19.7h6.2l20.3-19.7H219.1z M287.5,11.7c-2.1,0-4.1,1-6,2.9c-1.8,1.9-2.7,4-2.7,6.2
	c0,1.5,0.4,2.6,1.2,3.3c0.8,0.7,1.9,1.2,3.5,1.2c2.1,0,4-0.9,5.7-2.7c1.8-1.8,2.7-3.7,2.7-5.8c0-1.5-0.4-2.7-1.3-3.7
	C289.8,12.1,288.7,11.7,287.5,11.7z M87.4,39.9c-3.4,0-7.7,1.7-12.8,5.1c-5.1,3.4-11.2,8.6-18.3,15.8c1.5-2.7,2.5-5,3.1-6.9
	c0.6-1.9,0.9-3.7,0.9-5.3c0-2.4-0.6-4.2-1.8-5.6c-1.2-1.3-2.9-2-4.9-2c-3.1,0-6.8,1.6-11.2,4.7c-4.3,3.1-9.8,8.2-16.3,15.2l2.7,2.2
	c5.3-5.8,9.6-10.1,13-12.8c3.4-2.7,6.1-4.1,8-4.1c0.6,0,1.1,0.2,1.6,0.6c0.5,0.4,0.7,1,0.7,1.6c0,2-2.4,6.6-7.3,13.9
	C39.9,69.6,32.1,80,21.6,93.6h9.6C44.9,77.1,56.1,64.9,64.7,57c8.6-7.9,15.2-11.8,19.8-11.8c1.5,0,2.7,0.5,3.7,1.5
	c1,1,1.5,2.2,1.5,3.7c0,3.6-6.8,14-20.3,31.3c-4,5-7.1,9-9.3,11.9h9.4c12-15.4,23-27.4,33.1-36.2c10.1-8.8,17.8-13.2,23.1-13.2
	c1.5,0,2.6,0.4,3.4,1.1c0.8,0.7,1.3,1.6,1.3,2.7c0,1.5-3,6.4-8.8,14.6c-2.5,3.4-4.5,6.1-5.9,8.1c-0.6,0.9-1.5,2.2-2.8,3.9
	c-4.6,6.1-6.9,10.4-6.9,12.8c0,2.4,0.8,4.4,2.6,6.1c1.7,1.7,3.8,2.6,6.2,2.6c6,0,12.5-2.5,19.5-7.6c3.4-2.5,7.4-5.9,12-10.3
	c-0.7,1.9-1,3.7-1,5.4c0,3.8,1.3,6.9,3.9,9.2c2.6,2.3,6.2,3.4,10.8,3.4c3.4,0,7.2-1.1,11.6-3.2c4.4-2.1,9.2-5.3,14.6-9.4l3.9-3.6
	c2.7-2.3,5.2-4.7,7.3-7c23.9,6.5,58.8-26.1,66-28.6c0-0.1,0.1-0.1,0.1-0.2l-0.1,0.2L226.4,99c-8.4,4.1-16,8.3-22.7,12.6h6.3
	c4.4-2.6,9-5.2,13.9-7.6c-15.8,21.7-26.9,35.8-33,42.3c-6.1,6.5-11,9.8-14.5,9.8c-1.3,0-2.2-0.3-2.8-1c-0.6-0.7-1-1.8-1-3.4
	c0-4.5,2.4-9.6,7.2-15.4V133c0-0.7,0-1.3-0.1-2c-7.1,7.7-10.7,14.8-10.7,21.2c0,2.1,0.7,3.7,2,4.9c1.3,1.2,3.1,1.9,5.3,1.9
	c5,0,12.5-5.1,22.4-15.1c9.9-10,21.8-24.8,35.8-44.3c15-5.3,28.1-11.1,39.1-17.7c4.7-2.8,8.9-5.7,12.7-8.6l-2.4-2
	c-3.1,2.3-6.5,4.5-10.2,6.7c-10,6-22,11.7-35.8,16.8l38.6-54.9c-4.1,0.1-8.1,0.4-11.8,0.9c0,0,0,0,0,0c-6.1,0.6-43.9,34.9-64.9,29.4
	c1.5-1.8,2.9-3.7,4.1-5.5c3.2-5.1,4.8-9.8,4.8-14.1c0-3.4-1-5.9-3.2-7.8c-2.1-1.9-5.1-2.8-8.9-2.8c-5.7,0-12.3,2.1-19.7,6.3
	c-5.7,3.3-11.3,7.6-16.8,12.8c-0.1,0.1-0.1,0.2-0.2,0.2c-1.5,1.4-2.9,2.9-4.4,4.4c-1.3,1.4-2.6,2.8-3.7,4.2
	c-6.2,6.5-11.7,11.6-16.5,15.4c-6.8,5.4-12.3,8.1-16.4,8.1c-1.3,0-2.4-0.3-3.2-0.8c-0.8-0.5-1.3-1.2-1.2-2.1c0-1.2,2.4-5.2,7.3-11.9
	c2.4-3.3,4.4-6,5.8-8l0.2-0.3c6-8.2,8.9-14.2,8.9-18c0-3-0.9-5.5-2.8-7.5c-1.9-2-4.2-3-7.1-3c-3.7,0-8.4,1.7-14,5.2
	c-5.6,3.5-12,8.6-19.1,15.3c0.9-2,1.6-3.8,2.1-5.4c0.5-1.6,0.7-3.1,0.7-4.4c0-3.4-0.8-6-2.6-7.9C92.7,40.8,90.3,39.9,87.4,39.9z
	 M198.5,44.1c2.3,0,4,0.6,5.2,1.8c1.2,1.2,1.8,3.1,1.8,5.5c0,3.8-2,8.5-6,14.1c-4,5.6-9.4,11-16.1,16.2c-4.3,3.4-8.4,6.1-12.4,8
	c-4,1.9-7.5,2.8-10.6,2.8c-2.1,0-3.9-0.6-5.2-1.7c-1.3-1.1-2-2.4-2-4.2c0-2.9,1.4-6.4,4.2-10.3c2.8-3.9,7.4-8.7,13.7-14.6
	c6.3-5.9,11.7-10.3,16.2-13.2C191.8,45.6,195.6,44.1,198.5,44.1z M137.5,112.2l-0.4,2.4c-0.4,2.5-0.8,4.9-1.4,7.3
	c-0.6,2.4-1.3,4.9-2,7.2l-11.2,35.6c-1.1,4-2.2,7.5-4.1,11.1c-1.5,2.1-3,2.9-5.6,3H97.1c-0.5-3.6-0.9-7-0.9-10.7v-14.8h6.9
	c0.7,0,0.9,0.1,1.2,0.4c0.3,0.2,0.2,0.2,0.2,0.5v2.3v2.9h2.9h2.9h2.9v-2.9v-15v-2.9h-2.9h-2.9h-2.9v2.9v2.2c0,0.5,0,0.3-0.2,0.5
	c-0.3,0.3-0.6,0.5-1.2,0.5h-6.9V133c0-3.6,0.4-7.2,0.9-10.8h4.2c0,0,0.1,0,0.1,0c2.5,0.1,4,1.1,5.4,3.2c1.6,2.3,2.4,4.9,2.4,8.1v2.9
	h2.9h2.9h2.9v-2.9v-17v-2.9h-2.9H72.1h-1.2h-2.8H11H8.1v2.9v17v2.9H11h2.9h2.8v-2.9c0-3.3,0.9-5.8,2.4-8.1c1.4-2.1,3-3,5.5-3.2h0.1
	h4.1c0.5,3.6,0.9,7.2,0.9,10.8v35.2c0,3.6-0.4,7.1-0.9,10.7h-3.4h-2.9v2.9v2.9v2.9h2.9h28.5h2.9v-2.9v-2.9v-2.9h-2.9h-3.4
	c-0.5-3.6-0.9-7-0.9-10.7V133c0-3.6,0.4-7.2,0.9-10.8h3.9c0,0,0.1,0,0.1,0c2.5,0.1,4,1.1,5.5,3.2c1.6,2.3,2.4,4.9,2.4,8.1v2.9h2.9
	h2.9h2.8v-2.9v-11.3h1.2h3.4c0.5,3.6,0.9,7.2,0.9,10.8v35.2c0,3.6-0.4,7.1-0.9,10.7h-3.4h-2.8v2.9v2.9v2.9h2.8h47.6h9.5h2.9v-2.9
	v-2.9v-2.9h-2.9H128c0.6-3.3,1.3-6.7,2.3-9.9l1.7-5.1h12.2l1.9,5.2c0.8,2.2,1.3,4.4,1.9,6.6c0.3,1.1,0.5,2.1,0.8,3.2h-1.2h-2.9v2.9
	v2.9v2.9h2.9h25.5h2.8h1.9H206h2.9v-2.9v-2.9v-2.9H206h-3.4c-0.5-3.6-0.9-7-0.9-10.7V144c-0.5,0.5-0.9,1-1.4,1.4
	c-5,5.1-9.4,8.9-13.3,11.6c-1.8,1.2-3.5,2.1-5.1,2.8v8.4c0,3.6-0.4,7.1-0.9,10.7h-3.4h-1.9h-2.8h-3.2c-0.8-1.6-1.5-3.3-2.3-4.9
	c-1-2.2-1.8-4.5-2.7-6.8l-13.3-38v-0.1c-0.9-2.4-1.6-4.7-2.3-7.1c-0.7-2.4-1.2-4.9-1.7-7.3l-0.5-2.4h-2.3H140H137.5z M160.3,113.6
	v2.9v17v2.9h2.9h2.9h2.8v-2.9c0-3.3,0.9-5.8,2.4-8.1c1.4-2.1,3-3,5.5-3.2h0.1h4.1c0.4,2.7,0.7,5.4,0.8,8.1c0,0.9,0.1,1.8,0.1,2.7
	v0.8v17.7c2.2-1.5,4.7-3.6,7.6-6.6c2.6-2.8,7.1-8.3,12.3-15.1c0.1-2.5,0.5-5,0.8-7.5h3.9c0,0,0.1,0,0.1,0c0.3,0,0.5,0,0.8,0.1
	c2.1-2.8,4.3-5.7,6.5-8.7h-7.4h-6h-37.3H160.3z M226.8,113.6c-4.5,5.9-8.7,11.3-12.7,16.2c0.3,1.1,0.5,2.4,0.5,3.7v2.9h2.9h2.9h2.8
	v-2.9v-11.3h1.2h3.4c0.5,3.6,0.9,7.2,0.9,10.8v35.2c0,3.6-0.4,7.1-0.9,10.7h-3.4h-2.8v2.9v2.9v2.9h2.8h28.4h2.9v-2.9v-2.9v-2.9h-2.9
	h-3.4c-0.5-3.6-0.9-7-0.9-10.7v-14.1h0.1c3,0,4.6,0.8,5.5,1.9c1,1.2,1.8,3.4,2,6.8v0.1l1,11.2c0,0,0,0.1,0,0.1
	c0.3,4.3,1.5,7.9,4.1,10.4c2.6,2.5,6.3,3.6,10.5,3.6c0,0,0.1,0,0.2,0h9.2h2.9v-2.8v-3v-2.8h-2.9h-1.2c0,0-0.1,0-0.2,0
	c-1-0.1-1.1-0.2-1.6-1.4c-0.7-1.6-1.1-3.4-1.3-5.6l-0.9-10.3v-0.1c-0.4-3.8-2-7.3-4.7-9.8c-1.1-1.1-2.8-1.5-4.2-2.3
	c2.4-1,5.2-1.7,7-3.3c3.4-3.2,5-7.7,5.1-13v-0.1c-0.2-6.7-2.9-12.3-8-15.6c-4.9-3.2-11.1-4.6-18.3-4.6H226.8z M249.4,122.2h2
	c0.1,0,0.1,0,0.1,0c3.1,0.1,4.9,1,6.2,2.9c1.5,2.1,2.3,4.8,2.3,8.6c0,3.9-0.8,6.7-2.3,8.8c-1.3,1.9-3.1,2.8-6.2,2.9h-0.1h-2.9V133
	C248.5,129.4,248.9,125.8,249.4,122.2z M137.6,145.5l3.4,9.8h-6.5L137.6,145.5z"/>
</svg>
